<svg width="255" height="80" viewBox="0 0 255 80" fill="none" xmlns="http://www.w3.org/2000/svg">
<g clip-path="url(#clip0_27_179)">
<g style="mix-blend-mode:lighten" opacity="0.5">
<g opacity="0.5">
<g opacity="0.8">
<path d="M15.0566 12.7542C14.977 12.3197 15.0301 11.5593 15.2158 11.1248L15.5078 10.3101L16.1978 11.9395C16.5694 12.8357 17.5779 14.9811 18.4538 16.692C19.3031 18.4029 20.6566 20.7928 21.4263 21.9877C22.1959 23.1826 23.4433 24.7306 24.1865 25.4367C24.9296 26.1699 26.0443 26.9846 26.6812 27.2834C27.2917 27.5821 28.3267 27.8265 28.9903 27.8265C29.6538 27.8265 30.6092 27.6093 32.122 26.876L31.5912 27.6907C31.2993 28.1524 30.5827 29.5374 29.9988 30.8138C29.3884 32.0902 28.6452 33.9097 27.7959 36.5712L26.3097 34.4257C25.4604 33.258 23.6557 30.4879 22.2756 28.2339C20.8955 26.007 18.9846 22.5852 18.0557 20.6298C17.1002 18.6745 16.0651 16.3118 15.7732 15.3342C15.4813 14.3565 15.1628 13.1887 15.0566 12.7542Z" fill="#734BD1"/>
<path d="M91.4395 16.9636C92.2357 15.3885 93.2443 13.2974 93.6689 12.2925C94.1732 11.0433 94.5182 10.5545 94.704 10.7446C94.8367 10.8804 94.9429 11.5321 94.9429 12.1568C94.9163 12.7814 94.6244 14.1664 94.3059 15.1984C93.9609 16.2303 92.9258 18.6745 91.9703 20.6298C91.0149 22.5852 89.104 25.9798 87.7239 28.2339C86.3438 30.4608 84.5391 33.258 82.2301 36.5712L81.6727 34.8331C81.3542 33.9098 80.6111 32.0902 80.0272 30.8138C79.4168 29.5374 78.7002 28.1524 77.904 26.876L78.8595 27.3648C79.3903 27.6093 80.3722 27.8265 81.0357 27.8265C81.6727 27.8265 82.7343 27.5821 83.3448 27.2834C83.9552 26.9846 85.0964 26.1699 85.8395 25.4367C86.5827 24.7306 87.8035 23.1826 88.5732 21.9877C89.3428 20.7928 90.6433 18.5387 91.4395 16.9636Z" fill="#734BD1"/>
<path d="M36.4215 19.0004C36.2888 18.8646 36.103 17.8598 36.0234 16.8278L35.8642 14.9268L36.3419 15.7415C36.5808 16.2032 36.9258 16.692 37.085 16.855C37.2443 17.0179 37.7485 17.3438 38.2263 17.5882C38.704 17.8598 39.2879 18.0499 39.5533 18.077C39.8187 18.077 39.5002 18.3215 38.8898 18.6202C38.2794 18.8918 37.8016 19.2177 37.8547 19.3263C37.9078 19.4621 37.6689 19.4892 37.2974 19.4078C36.9258 19.3263 36.5277 19.1362 36.4215 19.0004Z" fill="#734BD1"/>
<path d="M73.1533 16.5834C73.4187 16.2575 73.6841 15.7687 73.7902 15.4699L73.976 14.9268L74.0822 15.4699C74.1353 15.7687 74.1087 16.6106 74.0291 17.371C73.9495 18.1042 73.7106 18.8646 73.5248 19.0276C73.3391 19.1905 72.941 19.4078 72.5959 19.5164C72.2509 19.5979 72.0651 19.5707 72.1448 19.4078C72.2244 19.272 71.7732 18.8918 71.1362 18.6202C70.5258 18.3215 70.2339 18.077 70.4727 18.077C70.7381 18.0499 71.322 17.8598 71.7997 17.6154C72.2775 17.3438 72.8879 16.9093 73.1533 16.5834Z" fill="#734BD1"/>
<path d="M23.3637 58.813C24.0007 58.1341 24.6907 57.2107 24.9296 56.749C25.3277 55.9886 25.3542 55.9615 25.6196 56.4775C25.7789 56.7762 25.8054 57.6181 25.7258 58.3785C25.6462 59.1117 25.4073 60.1437 25.2215 60.6597C24.9561 61.3386 24.3457 61.9089 22.6206 63.0495C21.3997 63.8371 18.4007 65.5208 15.9855 66.7158C13.5969 67.9378 10.6244 69.5944 7.22722 71.8213L6.98836 70.7894C6.85566 70.2462 6.69642 69.4043 6.59026 68.9698C6.43101 68.1823 6.45755 68.1823 6.82912 68.6982C7.06798 68.997 7.25376 69.3229 7.22722 69.4315C7.22722 69.5673 7.413 69.7031 7.62533 69.7845C7.86419 69.866 8.71348 69.5401 9.56277 69.0513C10.3855 68.5896 12.7476 67.096 14.7912 65.7109C16.8348 64.3531 19.3561 62.5335 20.3647 61.6645C21.3997 60.7955 22.7533 59.5191 23.3637 58.813Z" fill="#734BD1"/>
<path d="M84.3002 58.65C84.2206 58.0526 84.2206 57.2107 84.3267 56.749C84.5125 55.9615 84.5125 55.9615 84.8575 56.4775C85.0699 56.7762 85.5741 57.4823 85.9722 58.0526C86.3969 58.5957 87.8035 60.0079 89.104 61.1485C90.431 62.2891 93.1646 64.3531 95.2083 65.7109C97.2519 67.096 99.6139 68.5896 100.463 69.0513C101.286 69.5401 102.162 69.866 102.374 69.7845C102.613 69.7031 102.772 69.5673 102.772 69.4315C102.772 69.3229 102.958 68.997 103.17 68.6982C103.568 68.1823 103.568 68.1823 103.409 68.9698C103.33 69.4043 103.144 70.2462 102.772 71.8213L100.596 70.382C99.3751 69.5944 96.4291 67.9378 94.0139 66.7158C91.6253 65.5208 88.5997 63.8371 87.3258 62.9952C85.468 61.8003 84.9372 61.3115 84.7514 60.6054C84.5921 60.1437 84.4064 59.2475 84.3002 58.65Z" fill="#734BD1"/>
<path d="M26.9467 65.032C26.4424 63.3483 26.2566 61.9089 26.2035 59.7363L26.0974 56.749L26.9732 58.9216C27.4509 60.1165 28.3533 62.1262 28.9903 63.4026C29.6272 64.679 30.795 66.8244 31.6177 68.1551C32.4139 69.4858 33.741 71.5226 34.5372 72.6361C35.3334 73.7495 36.6339 75.4604 37.4301 76.4381C38.2263 77.4157 40.1106 79.4254 41.6234 80.919C43.1097 82.4127 45.2329 84.3137 46.3476 85.1284C47.4357 85.9431 48.3381 86.7307 48.3647 86.8936C48.3647 87.0566 47.8869 87.1109 47.1173 87.0023C46.4272 86.8936 44.9675 86.4591 43.8528 85.9975C42.7647 85.5629 41.0926 84.7211 40.1372 84.1507C39.2083 83.5533 37.5362 82.3584 36.4481 81.4622C35.3599 80.566 33.7144 78.9094 32.7855 77.7959C31.8301 76.6825 30.6623 75.0802 30.1846 74.2655C29.6803 73.4508 29.2026 72.446 29.1495 72.0114C29.0699 71.6041 28.6718 70.382 28.3002 69.3229C27.9021 68.2366 27.2917 66.3084 26.9467 65.032Z" fill="#734BD1"/>
<path d="M81.2215 62.9952C81.9647 61.5016 82.8405 59.5191 83.1855 58.5686C83.504 57.6452 83.8225 56.8848 83.8756 56.8848C83.9021 56.8848 83.9021 58.1884 83.849 59.7907C83.7959 61.9089 83.5836 63.3754 83.1059 65.032C82.7343 66.3084 82.1239 68.2366 81.7258 69.2957C81.3542 70.382 81.0092 71.5498 80.9561 71.8757C80.903 72.2287 80.2926 73.4236 79.576 74.5371C78.886 75.6505 77.6917 77.3071 76.9485 78.1761C76.2054 79.0723 74.5865 80.6203 73.3391 81.6523C72.0917 82.6843 70.0746 84.0421 68.8272 84.6939C67.5798 85.3457 65.8016 86.1604 64.8462 86.4591C63.8907 86.785 62.8026 87.0294 62.4045 87.0294C61.9798 87.0294 61.6613 86.948 61.6879 86.8122C61.6879 86.7035 62.5902 85.9431 63.7049 85.1284C64.7931 84.3137 66.9429 82.4127 68.4291 80.919C69.9154 79.4254 71.7997 77.4157 72.5959 76.4381C73.3921 75.4604 74.7192 73.7495 75.5154 72.6361C76.3116 71.5226 77.6121 69.4858 78.4348 68.1551C79.231 66.8244 80.5049 64.4889 81.2215 62.9952Z" fill="#734BD1"/>
</g>
<path d="M12.7744 9.68375C12.7744 9.33071 12.8806 8.81472 13.0398 8.51599C13.2256 8.1901 13.6237 8 14.128 8C14.5791 8 15.9592 8.40736 17.2332 8.92335C18.5336 9.43934 20.8161 10.4442 22.3555 11.1774C23.8948 11.9378 26.7611 13.4315 28.7251 14.5178C30.6891 15.604 32.8919 16.8261 34.9621 18.021L34.8559 15.3868C34.8028 13.9474 34.909 12.2365 35.0682 11.6119C35.2275 10.9601 35.546 10.3898 35.7583 10.3084C35.9706 10.2269 36.9526 10.3898 37.9346 10.6886C38.9431 10.9601 42.0483 12.0736 49.9573 15.0609L50.9393 13.7845C51.4967 13.1056 52.4256 12.1822 53.0095 11.7477C53.6995 11.2589 54.3896 10.9601 55 10.9601C55.6104 10.9601 56.3005 11.2589 56.9905 11.7477C57.5744 12.1822 58.5033 13.1056 60.0427 15.0609L65.1384 13.1327C67.9517 12.0736 71.0569 10.9601 72.0389 10.6886C73.0474 10.3898 74.0294 10.2269 74.2417 10.3084C74.454 10.3898 74.7725 10.9601 74.9318 11.6119C75.091 12.2365 75.1972 13.9474 75.0379 18.021L76.3649 17.2606C77.0815 16.8261 79.3109 15.604 81.2749 14.5178C83.2389 13.4315 86.1052 11.9378 87.6446 11.2046C89.1839 10.4442 91.3071 9.49365 92.3422 9.05913C93.4038 8.62462 94.7839 8.1901 95.3943 8.08147C96.4028 7.94569 96.5621 7.97284 96.9071 8.5703C97.1725 9.03198 97.1991 9.62944 97.0664 10.5799C96.9602 11.3403 96.5886 12.9698 96.2436 14.2462C95.872 15.5226 94.9697 18.021 94.2265 19.8134C93.4834 21.6058 91.9441 24.9733 90.8028 27.2817C89.6616 29.5901 87.9365 33.039 85.1232 38.3619L88.3081 40.6159C90.0597 41.838 92.7403 43.8205 94.2796 45.0426C95.819 46.2375 98.3668 48.4101 99.9858 49.8494C101.605 51.3159 103.701 53.3798 104.657 54.4933C105.612 55.5796 106.992 57.2633 107.709 58.241C108.426 59.2187 109.461 60.9024 109.991 61.9887C110.549 63.0478 111 64.1613 111 64.4057C111 64.8131 110.708 64.9217 109.328 64.976C108.426 65.0303 107.629 65.1118 107.55 65.1661C107.47 65.2204 107.523 66.0895 107.656 67.1214C107.789 68.1263 107.815 69.1854 107.736 69.457C107.576 69.8643 107.417 69.8372 106.143 69.1039C105.4 68.6694 104.63 68.2892 104.498 68.2892C104.365 68.2892 104.02 69.3755 103.755 70.7334C103.463 72.2813 103.171 73.1775 102.958 73.1775C102.799 73.1504 101.923 72.4714 101.047 71.6296C100.172 70.7877 98.9773 69.8643 98.3934 69.5656C97.8095 69.2669 96.0844 68.6151 94.545 68.0991C93.0057 67.6103 90.8028 66.6326 89.6351 65.9265C88.4673 65.2476 86.8218 64.1341 84.4597 62.3146L84.3005 63.4824C84.1943 64.107 83.8227 65.492 83.4777 66.524C83.1062 67.5831 82.3896 69.2397 81.9118 70.2717C81.4076 71.2765 80.9564 72.0912 80.8768 72.0912C80.7972 72.0912 81.1422 70.8963 81.6464 69.457C82.1507 67.9905 82.8408 65.8722 83.1592 64.7588C83.5574 63.3194 83.7697 61.7715 83.8228 59.5446C83.8758 57.7793 84.0085 56.177 84.1147 55.9598C84.2474 55.7425 84.327 56.4486 84.327 57.5078C84.327 58.594 84.4863 59.9248 84.672 60.4679C84.9374 61.3369 85.3621 61.7443 87.2995 62.9935C88.6 63.8354 91.5991 65.5192 94.0142 66.7141C96.4294 67.9362 99.3754 69.5928 102.773 71.8196L103.011 70.7877C103.171 70.2445 103.356 69.3212 103.701 67.6917L107.019 68.0176L106.754 64.4872L107.868 64.1884C108.505 64.0527 109.116 63.8897 109.222 63.8626C109.328 63.8354 108.983 63.075 108.479 62.1788C107.948 61.2826 106.647 59.3816 105.612 57.9694C104.551 56.5572 102.454 54.1131 100.915 52.538C99.3754 50.9628 97.1194 48.8717 95.872 47.8669C94.6246 46.8893 92.7403 45.5314 91.6787 44.8253C90.6436 44.1464 88.6796 43.0329 84.9905 41.1319L84.6455 43.4403L84.1678 41.5936C83.8758 40.5888 83.3716 39.0679 83 38.1989C82.6284 37.357 82.3365 36.5966 82.3365 36.5152C82.3365 36.4337 82.8142 35.7004 83.4247 34.8857C84.0085 34.071 85.7867 31.301 87.3526 28.7753C88.945 26.2497 91.0152 22.5835 91.9441 20.6281C92.8995 18.6728 93.9346 16.3101 94.2265 15.3325C94.5185 14.3548 94.837 13.187 94.9431 12.7525C95.0228 12.2909 94.9697 11.6119 94.8104 11.1774C94.5716 10.5256 94.4389 10.4713 93.6692 10.6071C93.218 10.6886 91.7318 11.2046 90.4313 11.7205C89.1308 12.2637 86.3706 13.5401 84.327 14.5721C82.2834 15.604 79.4171 17.1792 77.9574 18.0754C76.4976 18.9715 75.091 19.8406 74.8256 20.0307C74.401 20.3294 74.4275 20.438 75.0379 21.633C75.4095 22.3662 75.6483 22.9908 75.5687 23.0723C75.4891 23.1538 75.0379 22.6378 74.5337 21.9045C74.0559 21.1984 73.1801 20.3023 72.6227 19.8949C72.0389 19.4875 70.9242 18.8901 70.128 18.5913C68.9867 18.1568 68.8806 18.0754 69.5972 18.184C70.1014 18.2655 71.0569 18.5913 71.7204 18.9172C72.5697 19.3246 73.0209 19.4061 73.3128 19.216C73.5251 19.053 73.7905 18.5913 73.8701 18.1568C73.9763 17.7223 74.0559 16.3644 74.0825 15.1152C74.0825 13.8931 74.0028 12.6439 73.8436 12.3452C73.6047 11.8835 73.3924 11.8292 72.3043 11.965C71.6142 12.0464 69.6768 12.6167 68.0047 13.2414C66.3327 13.8388 63.9706 14.7893 60.5735 16.4188L58.9014 14.4906C57.6806 13.0784 56.964 12.481 56.0616 12.1551C54.9735 11.7749 54.7611 11.7749 53.8057 12.1551C53.1156 12.4266 52.1602 13.2414 49.4265 16.4188L47.2237 15.3868C46.0294 14.7893 43.6673 13.8388 41.9953 13.2414C40.3232 12.6167 38.3858 12.0464 37.6692 11.965C36.6076 11.8292 36.3953 11.8835 36.1564 12.3452C35.9972 12.6439 35.9175 13.8931 35.9175 15.1152C35.9441 16.3644 36.0237 17.7223 36.1299 18.1568C36.2095 18.5913 36.4749 19.053 36.6872 19.216C36.9791 19.4061 37.4303 19.3246 38.2796 18.9172C38.9431 18.5913 39.8986 18.2655 40.4028 18.184C41.1194 18.0754 41.0133 18.1568 39.872 18.5913C39.0758 18.8901 37.9611 19.4875 37.3773 19.8949C36.8199 20.3023 35.9441 21.1984 35.4664 21.9045C34.9621 22.6378 34.5109 23.1538 34.4313 23.0723C34.3517 22.9908 34.5905 22.3662 34.9621 21.633C35.5725 20.438 35.5991 20.3294 35.1744 20.0307C34.909 19.8406 33.5024 18.9715 32.0427 18.0754C30.5829 17.1792 27.7166 15.604 25.673 14.5721C23.6294 13.5401 20.8692 12.2637 19.5687 11.7205C18.2682 11.2046 16.782 10.6886 16.3043 10.6071C15.5611 10.4713 15.4284 10.5256 15.1896 11.1774C15.0303 11.6119 14.9773 12.2909 15.0569 12.7525C15.163 13.187 15.4815 14.3548 15.7735 15.3325C16.0654 16.3101 17.1005 18.6728 18.0559 20.6281C18.9848 22.5835 21.055 26.2497 22.6474 28.7753C24.2133 31.301 25.9915 34.071 26.5754 34.8857C27.1858 35.7004 27.6635 36.4337 27.6635 36.5152C27.6635 36.5966 27.3716 37.357 27 38.1989C26.6284 39.0679 26.1242 40.5888 25.3545 43.4403L25.0095 41.1319L22.6209 42.354C21.3204 43.0329 19.3564 44.1464 18.2948 44.8253C17.2597 45.5314 15.3754 46.8893 14.128 47.8669C12.8806 48.8717 10.6246 50.9628 9.08531 52.538C7.54597 54.1131 5.44929 56.5572 4.38768 57.9694C3.35261 59.3816 2.05213 61.2826 1.52133 62.1788C1.01706 63.075 0.672038 63.8354 0.778199 63.8626C0.88436 63.8897 1.52133 64.0527 3.37915 64.5415L3.16682 65.8722C3.06066 66.6054 3.03412 67.393 3.11374 67.6103C3.21991 67.9362 3.53839 67.9905 6.29858 67.6917L6.5109 68.7237C6.6436 69.3212 6.82938 70.2445 7.22749 71.8196L9.40379 70.3803C10.6246 69.5928 13.5706 67.9362 15.9858 66.7141C18.4009 65.5192 21.4 63.8354 22.6739 62.9935C24.6379 61.7443 25.0626 61.3369 25.328 60.4679C25.5137 59.9248 25.673 58.594 25.673 57.5078C25.673 56.4486 25.7526 55.7425 25.8588 55.9598C25.9915 56.177 26.1242 57.7793 26.1773 59.5174C26.2303 61.7715 26.4427 63.3194 26.8408 64.7588C27.1592 65.8722 27.8493 67.9905 28.3536 69.4298C28.8578 70.8963 29.2028 72.0912 29.1232 72.0912C29.0436 72.0912 28.5924 71.2765 28.0882 70.2445C27.6104 69.2397 26.8938 67.5831 26.5223 66.524C26.1773 65.492 25.8057 64.107 25.5403 62.3146L24.0009 63.4824C23.1782 64.1341 21.8777 65.0303 21.1611 65.492C20.418 65.9808 19.1706 66.6598 18.3744 67.0128C17.5782 67.393 16.0123 67.9633 14.9242 68.2892C13.836 68.6422 12.3763 69.1854 11.6597 69.5384C10.9697 69.8915 9.6692 70.9235 8.74028 71.8196C7.83792 72.7158 7.01517 73.3405 6.909 73.2318C6.7763 73.1232 6.48436 71.9826 6.2455 70.6519C5.98009 69.3483 5.66161 68.2892 5.50237 68.2892C5.34313 68.2892 4.6 68.6694 3.83033 69.1039C2.58294 69.8372 2.4237 69.8643 2.26446 69.4298C2.18483 69.1854 2.21137 68.1263 2.34408 67.1214C2.47678 66.0895 2.52986 65.2204 2.45024 65.1661C2.37062 65.1118 1.57441 65.0303 0.672038 64.976C-0.708057 64.9217 -1 64.8131 -1 64.4057C-1 64.1613 -0.548815 63.0478 0.00853086 61.9616C0.539337 60.9024 1.57441 59.2187 2.291 58.241C3.00758 57.2633 4.38768 55.5796 5.34313 54.4933C6.29858 53.3798 8.39526 51.3159 10.0142 49.8494C11.6332 48.4101 14.181 46.2375 15.7204 45.0426C17.2597 43.8205 19.9403 41.838 24.8768 38.3619L22.6474 34.1253C21.4265 31.7626 19.436 27.7705 18.2417 25.2449C17.0209 22.7193 15.5877 19.4604 15.0569 18.0482C14.5261 16.636 13.7829 14.3005 13.4379 12.8883C13.0929 11.4761 12.7744 10.0368 12.7744 9.68375Z" fill="#28203E"/>
<path opacity="0.8" d="M17.9236 15.6057C16.8886 13.4331 15.9597 11.3963 15.8535 11.0433C15.6943 10.473 15.7473 10.4458 16.4374 10.6087C16.8355 10.6902 18.2687 11.2062 19.5691 11.7222C20.8696 12.2653 23.6298 13.5417 25.6734 14.5737C27.717 15.6057 30.5834 17.1808 32.0431 18.077C33.5028 18.9732 34.9094 19.8422 35.1748 20.0323C35.5995 20.3311 35.5729 20.4397 34.9625 21.6346C34.5909 22.3678 34.3521 22.9925 34.4317 23.0739C34.5113 23.1554 34.9625 22.6394 35.4668 21.9062C35.9445 21.2001 36.8734 20.2767 37.5104 19.8422C38.1473 19.4077 39.262 18.8374 41.3322 18.1042H40.2706C39.6867 18.1313 38.7843 17.9141 38.28 17.6425C37.7758 17.3709 37.2184 17.0179 37.0592 16.8549C36.8999 16.692 36.5815 16.1488 36.3426 15.66C36.0772 15.1983 35.8914 14.3564 35.8914 13.8405C35.8914 13.3245 35.9976 12.6455 36.1568 12.3468C36.3957 11.8851 36.608 11.8308 37.6696 11.9666C38.3862 12.0481 40.3236 12.6184 41.9957 13.243C43.6677 13.8405 46.0298 14.791 49.427 16.4204L50.9398 14.628C51.8952 13.5417 52.9303 12.6455 53.6734 12.2925C54.735 11.7765 54.9739 11.7765 55.9293 12.0752C56.6725 12.2925 57.5483 13.0257 60.7066 16.3661L62.8298 15.3613C63.9976 14.791 66.3331 13.8405 68.0051 13.243C69.6772 12.6184 71.6146 12.0481 72.3047 11.9666C73.3928 11.8308 73.6051 11.8851 73.844 12.3468C73.9767 12.6455 74.1094 13.3245 74.1094 13.8405C74.1094 14.3564 73.9236 15.1983 73.6582 15.66C73.4194 16.1488 73.1009 16.692 72.9416 16.8549C72.7824 17.0179 72.2251 17.3709 71.7208 17.6425C71.2165 17.9141 70.3142 18.1313 68.6687 18.1042L69.9957 18.5658C70.7123 18.8374 71.8535 19.4077 72.4905 19.8422C73.1274 20.2767 74.0563 21.2001 74.5341 21.9062C75.0383 22.6394 75.4895 23.1554 75.5691 23.0739C75.6488 22.9925 75.4099 22.3678 75.0383 21.6346C74.4279 20.4397 74.4014 20.3311 74.826 20.0323C75.0914 19.8422 76.498 18.9732 77.9578 18.077C79.4175 17.1808 82.2838 15.6057 84.3274 14.5737C86.371 13.5417 89.1047 12.2653 90.4317 11.7222C91.7322 11.2062 93.1388 10.7174 93.5369 10.6087C94.2004 10.473 94.2535 10.5001 94.1208 11.0433C94.0412 11.3963 93.1122 13.4331 92.0772 15.6057C91.0156 17.7511 89.5028 20.5755 88.68 21.8519C87.8573 23.1283 86.5568 24.7305 85.8137 25.4366C85.0705 26.1699 83.9558 26.9846 83.3189 27.2833C82.7085 27.582 81.6734 27.8265 81.0099 27.8265C80.3464 27.8265 79.3909 27.6092 77.8781 26.876L78.4089 27.6907C78.7009 28.1524 79.444 29.5917 80.0544 30.9496C80.6914 32.2803 81.3549 33.8825 81.5407 34.48C81.7265 35.0775 82.2307 36.4353 82.6819 37.4673C83.1331 38.4993 83.7701 40.2917 84.0886 41.4051C84.4336 42.5186 84.699 43.279 84.699 43.0889C84.7255 42.9259 84.7786 42.6543 84.8582 42.4914C84.9378 42.3285 84.9909 41.9754 84.9909 41.6767C84.9909 41.1878 85.2032 41.2422 87.3796 42.3556C88.68 43.0345 90.644 44.148 91.6791 44.8269C92.7407 45.533 94.625 46.8909 95.8724 47.8957C97.1198 48.8734 99.3227 50.9102 100.782 52.4038C102.242 53.8975 104.233 56.1515 105.215 57.4279C106.17 58.7043 107.524 60.6596 108.187 61.7731C109.249 63.5111 109.355 63.8099 108.957 63.8913C108.691 63.9457 108.081 64.1358 106.674 64.6246L107.019 68.0193L103.702 67.6934L103.171 68.671C102.879 69.2142 102.481 69.703 102.295 69.7845C102.136 69.866 101.287 69.5401 100.437 69.0512C99.6146 68.5896 97.2525 67.0687 95.2089 65.7109C93.1653 64.353 90.4848 62.3705 89.2374 61.2842C87.99 60.2251 86.6099 58.8944 86.1852 58.3241C85.7606 57.781 85.1502 56.9119 84.3274 55.4997L83.425 57.8896C82.9473 59.1931 81.9388 61.5015 81.1957 62.9952C80.4791 64.4888 79.2051 66.8243 78.4089 68.155C77.5862 69.4857 76.2857 71.5225 75.4895 72.636C74.6933 73.7494 73.3663 75.4604 72.5701 76.438C71.7739 77.4157 70.0487 79.2624 68.7483 80.5659C67.4743 81.8966 65.4838 83.689 64.3426 84.6124C63.2279 85.5086 62.0601 86.4319 61.7682 86.6763C61.2905 87.0565 61.1843 87.0565 60.5739 86.6763C60.2023 86.4591 59.1938 86.0789 58.3179 85.8344C57.4421 85.59 56.1947 85.3999 55.5312 85.3999C54.8677 85.3999 53.5142 85.59 52.4791 85.8073C51.444 86.0245 50.1966 86.4047 49.6924 86.6492C48.8431 87.0565 48.7104 87.0565 48.2326 86.6763C47.9407 86.4319 46.7729 85.5086 45.6317 84.6124C44.517 83.689 42.5265 81.8966 41.2526 80.5659C39.9521 79.2624 38.227 77.4157 37.4307 76.438C36.6345 75.4604 35.3075 73.7494 34.5113 72.636C33.7151 71.5225 32.4146 69.4857 31.5919 68.155C30.7957 66.8243 29.5217 64.4888 28.8052 62.9952C28.062 61.5015 27.0535 59.1931 25.6734 55.4997L25.1426 56.3959C24.8507 56.9119 24.2402 57.781 23.8156 58.3241C23.3644 58.8944 22.0108 60.2251 20.7635 61.2842C19.5161 62.3705 16.8355 64.353 14.7919 65.7109C12.7483 67.0687 10.3862 68.5896 9.53692 69.0512C8.71417 69.5401 7.86488 69.866 7.6791 69.7845C7.51986 69.703 7.12175 69.2142 6.29901 67.6934L4.75967 67.8563C3.53882 67.9921 3.22033 67.9378 3.11417 67.6119C3.03455 67.3946 3.06109 66.6342 3.14071 65.901C3.32649 64.6246 3.32649 64.6246 2.42412 64.2987C1.91986 64.1358 1.30943 63.9457 1.04403 63.8913C0.645927 63.8099 0.752088 63.5111 1.8137 61.7731C2.47721 60.6596 3.83076 58.7043 4.78621 57.4279C5.7682 56.1515 7.75872 53.8975 9.21844 52.4038C10.6782 50.9102 12.881 48.8734 14.1284 47.8957C15.3758 46.8909 17.2601 45.533 18.2952 44.8269C19.3568 44.148 21.3208 43.0345 22.6213 42.3556C24.7976 41.2422 25.0099 41.1878 25.0099 41.6767C25.0099 41.9754 25.063 42.3285 25.1426 42.4914C25.2222 42.6543 25.2753 42.9259 25.3018 43.0889C25.3018 43.279 25.5672 42.5186 25.9123 41.4051C26.2308 40.2917 26.8677 38.4993 27.3189 37.4673C27.7701 36.4353 28.2744 35.0775 28.4601 34.48C28.6459 33.8825 29.3094 32.2803 29.9464 30.9496C30.5568 29.5917 31.2999 28.1524 32.1227 26.876L31.1407 27.3648C30.6099 27.6092 29.6544 27.8265 28.9909 27.8265C28.3274 27.8265 27.2924 27.582 26.6554 27.2833C26.045 26.9846 24.9303 26.1699 24.1872 25.4366C23.444 24.7305 22.1435 23.1283 21.3208 21.8519C20.4981 20.5755 18.9853 17.7511 17.9236 15.6057Z" fill="#734BD1"/>
<path d="M43.3224 56.3401C43.2959 55.9599 43.2694 55.3081 43.2959 54.8465V54.0317L43.986 54.7107C44.3575 55.0909 44.6495 55.6883 44.6495 56.0685C44.6495 56.4487 44.5168 56.9647 44.331 57.2363C44.039 57.6708 43.9329 57.6708 43.6675 57.3721C43.5082 57.182 43.349 56.7203 43.3224 56.3401Z" fill="#28203E"/>
<path d="M65.3243 56.0957C65.2978 55.6883 65.5367 55.1723 65.9082 54.7921C66.2532 54.4391 66.5717 54.1947 66.6248 54.249C66.6779 54.2762 66.7044 54.9008 66.7044 55.6612C66.7044 56.4216 66.5717 57.182 66.3859 57.3721C66.094 57.698 65.9878 57.6708 65.6959 57.2363C65.5101 56.9647 65.3509 56.4487 65.3243 56.0957Z" fill="#28203E"/>
<path d="M37.2976 52.8094C37.218 51.8317 37.2976 50.2294 37.4834 49.2246V49.1975C37.6426 48.1926 37.8815 47.3779 37.9611 47.3779C38.0673 47.3779 38.8104 48.247 39.6066 49.3333C40.4028 50.3924 41.1725 51.4244 41.3317 51.5602C41.491 51.7231 41.9952 52.3206 42.4464 52.8909C43.2161 53.7871 43.3222 54.0858 43.3222 55.4436C43.2957 56.367 43.4549 57.1817 43.6407 57.3718C43.9327 57.6977 44.0388 57.6705 44.3308 57.236C44.5165 56.9645 44.6492 56.4485 44.6492 56.0683C44.6227 55.4436 44.782 55.5523 46.3744 57.0731C47.3298 58.0236 48.6038 59.1099 50.3554 60.1962L49.2938 60.8479C48.7099 61.201 47.7545 61.6355 47.1706 61.7985C46.5867 61.9614 45.3924 62.0429 44.49 62.0157C43.2692 61.9342 42.5791 61.717 41.5971 61.0924C40.8805 60.6307 39.9251 59.7345 39.4474 59.0556C38.9696 58.3766 38.3061 57.1002 38.0142 56.204C37.6957 55.3079 37.3772 53.7871 37.2976 52.8094Z" fill="#04D361" fill-opacity="0.8"/>
<path d="M68.6682 51.5873C68.8275 51.4515 69.5971 50.4195 70.3933 49.3604C71.1895 48.2741 71.9327 47.4051 72.0654 47.4051C72.1981 47.4051 72.4104 48.2198 72.5696 49.2246C72.7289 50.2566 72.782 51.8589 72.7023 52.8365C72.6227 53.8142 72.3042 55.335 71.9857 56.2312C71.6938 57.1274 71.0303 58.4038 70.5526 59.0827C70.0748 59.7617 69.1194 60.6578 68.4028 61.1195C67.4208 61.7441 66.7308 61.9614 65.5099 62.0429C64.6075 62.07 63.4132 61.9886 62.8293 61.8256C62.2455 61.6627 61.29 61.2281 59.6445 60.2233L60.7592 59.5172C61.3962 59.137 62.6701 58.0507 63.6256 57.1002C65.218 55.5794 65.3772 55.4708 65.3507 56.0954C65.3507 56.4756 65.4834 56.9916 65.6692 57.2632C65.9611 57.6977 66.0673 57.7249 66.3592 57.399C66.545 57.2089 66.7042 56.3942 66.6777 55.4708C66.6777 54.1129 66.7838 53.8142 67.527 52.918C68.0047 52.3477 68.509 51.7503 68.6682 51.5873Z" fill="#04D361" fill-opacity="0.8"/>
<path d="M35.9168 60.1394C35.5984 59.3247 35.386 58.5914 35.4126 58.5371C35.4391 58.4828 36.1292 59.1346 36.9519 59.9493C37.7481 60.7912 38.7566 61.7417 39.1548 62.0947C39.8713 62.6922 39.8979 62.8008 39.7386 67.3089L38.7566 65.8967C38.1993 65.1363 37.4562 63.8328 37.1112 63.0724C36.7661 62.2848 36.2088 60.9541 35.9168 60.1394Z" fill="#D8DFE3"/>
<path d="M71.5074 61.4972C72.277 60.8183 73.259 59.8678 73.6837 59.4061C74.1083 58.9173 74.4799 58.5643 74.4799 58.5914C74.5064 58.6457 74.2941 59.3518 74.0287 60.1665C73.7633 60.9813 73.2325 62.2848 72.8874 63.0724C72.5424 63.8328 71.7993 65.1363 70.26 67.3089L70.1007 62.7193L71.5074 61.4972Z" fill="#D8DFE3"/>
<path d="M40.1367 68.015V65.4351V62.8551L41.9415 63.7785C42.9235 64.2673 44.2239 64.8648 45.9756 65.4351V68.7754C45.9756 70.5949 45.896 72.0886 45.7898 72.0886C45.6571 72.0886 45.0202 71.7355 44.3301 71.3282C43.6666 70.9208 42.4457 70.0246 40.1367 68.015Z" fill="#D8DFE3"/>
<path d="M65.1377 65.0549C65.7747 64.8648 67.0486 64.2673 68.004 63.7785L69.7292 62.8551L69.8884 67.8792L68.4818 69.1828C67.7121 69.8889 66.4912 70.8394 65.7481 71.2739C65.0315 71.7084 64.3415 72.0614 64.2353 72.0886C64.1292 72.0886 64.023 70.5949 64.023 65.4351L65.1377 65.0549Z" fill="#D8DFE3"/>
<path d="M46.7718 72.6317C46.2941 72.3873 46.241 72.0886 46.241 68.9655C46.241 67.1188 46.3206 65.5708 46.4533 65.5708C46.5595 65.5708 47.3557 65.7066 48.2315 65.8696C49.1074 66.0325 50.9121 66.2769 52.2126 66.4127C53.5396 66.5485 54.787 66.6571 54.9993 66.6571C55.2116 66.6571 56.4856 66.5485 57.786 66.4127C59.113 66.2769 60.8912 66.0325 61.7671 65.8696C62.6429 65.7066 63.4391 65.5708 63.5718 65.5708C63.678 65.5708 63.7576 67.1188 63.7576 68.9655C63.7576 72.0886 63.7045 72.3873 63.2268 72.6317C62.9348 72.7947 61.6609 73.1749 60.387 73.5008C58.6619 73.9353 57.2552 74.0982 54.9993 74.0982C52.7699 74.0982 51.3367 73.9353 49.6382 73.5008C48.3377 73.1749 47.0638 72.7947 46.7718 72.6317Z" fill="#D8DFE3"/>
<path d="M37.775 46.6997C37.3238 45.9665 36.9523 45.1789 36.9788 44.9888C37.0054 44.7987 37.6158 45.4505 38.3589 46.4825C39.102 47.4873 40.4291 49.2525 41.358 50.366C42.2603 51.4794 44.0651 53.4619 45.3655 54.7383C46.6395 56.0147 48.5769 57.7799 49.6651 58.6761C50.7267 59.5451 51.4964 60.3055 51.3106 60.3598C51.1513 60.387 50.4613 60.1426 49.7712 59.8167C49.0016 59.4365 47.4091 58.0515 45.7106 56.3406C44.1712 54.7654 42.5523 53.0545 42.1011 52.5385C41.6764 52.0226 40.721 50.8005 39.9779 49.8228C39.2347 48.8452 38.2262 47.4601 37.775 46.6997Z" fill="#28203E"/>
<path d="M70.393 48.1934C71.5873 46.6183 72.649 45.1518 72.7286 44.9345C72.8347 44.6629 72.9144 44.6358 72.9674 44.8802C73.0205 45.0431 72.8613 45.5863 72.649 46.0208C72.4366 46.4825 71.4546 47.8946 70.4727 49.2254C69.4907 50.5289 68.3494 52.0226 67.8982 52.5385C67.4736 53.0545 65.8281 54.7654 64.2888 56.3406C62.5902 58.0515 60.9978 59.4365 60.2281 59.8167C59.5381 60.1426 58.848 60.387 58.6888 60.3598C58.5295 60.3055 59.5115 59.355 60.8651 58.1873C62.2452 57.0467 64.448 54.9827 65.775 53.5705C67.102 52.1855 69.1722 49.7685 70.393 48.1934Z" fill="#28203E"/>
</g>
</g>
<path d="M56.8299 43.6095H43V27.3911H47.123V39.4502H56.8299V43.6095Z" fill="white"/>
<path d="M75.2844 43.6095H59.4047V27.3911H74.9781V31.355H63.5278V33.8115H71.8681V37.1612H63.5278V39.6456H75.2844V43.6095Z" fill="white"/>
<path d="M87.4052 44C85.002 44 83.1172 43.7278 81.7507 43.1905C80.3842 42.6531 79.4006 41.7808 78.8057 40.5665C78.2049 39.3592 77.9104 37.6634 77.9104 35.486C77.9104 33.3087 78.199 31.6199 78.7821 30.4056C79.377 29.1773 80.3607 28.305 81.7272 27.7816C83.0937 27.2652 84.9844 27 87.4052 27C89.8378 27 91.7403 27.2652 93.1068 27.7816C94.4733 28.305 95.4451 29.1773 96.0283 30.4056C96.6231 31.6199 96.9235 33.3087 96.9235 35.486C96.9235 37.6634 96.6231 39.3592 96.0283 40.5665C95.4451 41.7808 94.4733 42.6531 93.1068 43.1905C91.7403 43.7278 89.8378 44 87.4052 44ZM87.4052 39.7011C89.0662 39.7011 90.7331 39.6593 92.4 39.5616V31.4105C90.5446 31.3407 88.8777 31.2989 87.4052 31.2989C85.9268 31.2989 84.2717 31.3407 82.434 31.4105V39.5616C84.0832 39.6593 85.7383 39.7011 87.4052 39.7011Z" fill="white"/>
<path d="M110.791 44C108.777 44 107.198 43.7278 106.056 43.1905C104.925 42.6531 104.106 41.7668 103.605 40.5386C103.116 39.3103 102.875 37.6285 102.875 35.486C102.875 33.3506 103.116 31.6757 103.605 30.4614C104.106 29.2332 104.925 28.3539 106.056 27.8095C107.198 27.2722 108.777 27 110.791 27C113.63 27 116.363 27.1326 118.99 27.3908L119.131 31.7176C116.834 31.4245 114.302 31.1593 111.521 30.936C110.343 30.8452 108.965 30.7685 107.398 30.7126V40.2315C108.765 40.1966 110.137 40.1408 111.521 40.064C113.842 39.9384 116.41 39.6663 119.226 39.2545L119.084 43.6092C116.522 43.8674 113.76 44 110.791 44Z" fill="white"/>
<path d="M126.622 27.3911H132.607L139.204 43.4978V43.6095H134.704L133.455 40.3993H125.727L124.478 43.6095H120.073V43.4978L126.622 27.3911ZM129.544 30.685L127.164 36.7983H132.041L129.662 30.685H129.544Z" fill="white"/>
<path d="M158.369 43.4978V43.6095H153.045L148.026 37.9708H145.505V43.6095H141.382V27.3911H152.503C154.447 27.3911 155.878 27.8377 156.791 28.731C157.698 29.6103 158.157 30.9223 158.157 32.667C158.157 34.307 157.763 35.5701 156.979 36.4634C156.19 37.3427 154.965 37.8312 153.304 37.9428L158.369 43.4978ZM153.822 31.1596H145.505V34.5652H153.822V31.1596Z" fill="white"/>
<path d="M171.646 43.6095H165.426L159.371 27.5028V27.3911H163.871L168.56 40.2877H168.678L173.46 27.3911H177.819V27.5028L171.646 43.6095Z" fill="white"/>
<path d="M184.24 27.3911H190.225L196.822 43.4978V43.6095H192.322L191.073 40.3993H183.345L182.096 43.6095H177.691V43.4978L184.24 27.3911ZM187.162 30.685L184.782 36.7983H189.659L187.28 30.685H187.162Z" fill="white"/>
<path d="M212.83 43.6095H199.001V27.3911H203.124V39.4502H212.83V43.6095Z" fill="white"/>
<path d="M228.222 33.2811V27.3911H232.345V43.6095H228.222V37.4404H219.529V43.6095H215.406V27.3911H219.529V33.2811H228.222Z" fill="white"/>
<path d="M245.482 44C243.078 44 241.194 43.7278 239.827 43.1905C238.461 42.6531 237.477 41.7808 236.882 40.5665C236.281 39.3592 235.987 37.6634 235.987 35.486C235.987 33.3087 236.275 31.6199 236.859 30.4056C237.453 29.1773 238.437 28.305 239.804 27.7816C241.17 27.2652 243.061 27 245.482 27C247.914 27 249.817 27.2652 251.183 27.7816C252.55 28.305 253.522 29.1773 254.105 30.4056C254.7 31.6199 255 33.3087 255 35.486C255 37.6634 254.7 39.3592 254.105 40.5665C253.522 41.7808 252.55 42.6531 251.183 43.1905C249.817 43.7278 247.914 44 245.482 44ZM245.482 39.7011C247.143 39.7011 248.809 39.6593 250.476 39.5616V31.4105C248.621 31.3407 246.954 31.2989 245.482 31.2989C244.003 31.2989 242.348 31.3407 240.51 31.4105V39.5616C242.16 39.6593 243.815 39.7011 245.482 39.7011Z" fill="white"/>
</g>
<defs>
<clipPath id="clip0_27_179">
<rect width="255" height="80" fill="white"/>
</clipPath>
</defs>
</svg>
