<svg width="52" height="52" viewBox="0 0 81 81" fill="none" xmlns="http://www.w3.org/2000/svg">
<path fill-rule="evenodd" clip-rule="evenodd" d="M30.4845 41.3112L31.5628 39.6267L28.1939 37.4702L27.1156 39.1547L21.3161 48.2146C20.2922 47.9079 19.207 47.7432 18.0835 47.7432C11.8685 47.7432 6.8335 52.7824 6.8335 58.9932C6.8335 65.2077 11.869 70.2432 18.0835 70.2432C24.2998 70.2432 29.3295 65.203 29.3335 58.9945L27.3335 58.9932H29.3335C29.3335 55.3404 27.5929 52.0953 24.8967 50.0404L30.4845 41.3112ZM20.9215 52.3198L22.7063 53.4623L22.7289 53.4269C24.3206 54.7567 25.3335 56.7564 25.3335 58.9932C25.3302 62.9973 22.0869 66.2432 18.0835 66.2432C14.0781 66.2432 10.8335 62.9986 10.8335 58.9932C10.8335 54.9906 14.0786 51.7432 18.0835 51.7432C19.0906 51.7432 20.0498 51.9486 20.9215 52.3198Z" fill="url(#paint0_linear_6_2288)"/>
<path fill-rule="evenodd" clip-rule="evenodd" d="M33.2499 22.0056C33.2499 18.003 36.495 14.7556 40.4999 14.7556C44.5025 14.7556 47.7499 18.0007 47.7499 22.0056C47.7499 24.3823 46.6058 26.4928 44.8377 27.8152L43.9481 28.3846C42.923 28.94 41.749 29.2554 40.5011 29.2556C36.4929 29.2496 33.2499 26.0025 33.2499 22.0056ZM44.8114 32.3998C43.4837 32.9512 42.0275 33.2556 40.4999 33.2556H40.4973H40.4954C34.2852 33.2465 29.2499 28.2143 29.2499 22.0056C29.2499 15.7948 34.2849 10.7556 40.4999 10.7556C46.7107 10.7556 51.7499 15.7906 51.7499 22.0056C51.7499 25.2521 50.3742 28.1785 48.1733 30.2324L53.8844 39.1543L54.9627 40.8387L51.5938 42.9952L50.5156 41.3108L44.8114 32.3998Z" fill="#E1E1E6"/>
<path fill-rule="evenodd" clip-rule="evenodd" d="M55.67 58.9932C55.67 54.9906 58.915 51.7432 62.92 51.7432C66.9225 51.7432 70.17 54.9882 70.17 58.9932C70.17 62.9957 66.9249 66.2432 62.92 66.2432C58.9117 66.2432 55.67 62.9991 55.67 58.9932ZM51.8481 60.9989C52.7931 66.2558 57.3867 70.2432 62.92 70.2432C69.135 70.2432 74.17 65.2039 74.17 58.9932C74.17 52.7781 69.1307 47.7432 62.92 47.7432C57.3859 47.7432 52.7875 51.7386 51.8462 56.9989H40.5H38.5V60.9989H40.5H51.8481Z" fill="url(#paint1_linear_6_2288)"/>
<defs>
<linearGradient id="paint0_linear_6_2288" x1="10.5001" y1="70.5" x2="25.3285" y2="36.2603" gradientUnits="userSpaceOnUse">
<stop stop-color="#8257E5"/>
<stop offset="1" stop-color="#8257E5" stop-opacity="0.25"/>
</linearGradient>
<linearGradient id="paint1_linear_6_2288" x1="74.5" y1="58.5" x2="38.5" y2="58.5" gradientUnits="userSpaceOnUse">
<stop stop-color="#04D361"/>
<stop offset="1" stop-color="#04D361" stop-opacity="0.25"/>
</linearGradient>
</defs>
</svg>
